# xmcd
#
# Track frame offsets:
# 150
# 12181
# 31929
# 50883
# 66575
# 85145
# 103985
# 123767
# 141295
# 157477
#
# Disc length: 2322 seconds
#
#
# Revision: 0
# Processed by: cddbd v1.5.2PL0 Copyright (c) Steve Scherf et al.
# Submitted via: FreeRIP 2.951 
#
DISCID=9209100a
DTITLE=John Mayall - Notice To Appear
DYEAR=1976
DGENRE=Blues
TTITLE0=Lil Boogie in the Afternoon
TTITLE1=Mess of Love
TTITLE2=That Love
TTITLE3=The Boy most likely to Succeed
TTITLE4=Who´s next who´s now
TTITLE5=Hale to me Man who lives alone
TTITLE6=There will be a Way
TTITLE7=Just knowing you is a Pleasure
TTITLE8=A hard Day´s Night
TTITLE9=Oldtime Blues
EXTD=
EXTT0=
EXTT1=
EXTT2=
EXTT3=
EXTT4=
EXTT5=
EXTT6=
EXTT7=
EXTT8=
EXTT9=
PLAYORDER=
